<svg xmlns="http://www.w3.org/2000/svg" xmlns:xlink="http://www.w3.org/1999/xlink" fill="#313bac" height="800px" width="800px" version="1.1" id="Capa_1" viewBox="0 0 489.8 489.8" xml:space="preserve">
  <g>
    <g>
      <!-- Outer square same as original -->
      <path d="M438.2,0H51.6C23.1,0,0,23.2,0,51.6v386.6c0,28.5,23.2,51.6,51.6,51.6h386.6c28.5,0,51.6-23.2,51.6-51.6V51.6
        C489.8,23.2,466.6,0,438.2,0z M465.3,438.2c0,14.9-12.2,27.1-27.1,27.1H51.6c-14.9,0-27.1-12.2-27.1-27.1V51.6
        c0-14.9,12.2-27.1,27.1-27.1h386.6c14.9,0,27.1,12.2,27.1,27.1V438.2z"/>
      
      <!-- Letter B bigger -->
      <text x="50%" y="55%" dominant-baseline="middle" text-anchor="middle"
            font-family="Arial, sans-serif" font-size="300" fill="#313bac">B</text>
    </g>
  </g>
</svg>
